Coordinates
version=1
nRows=18
nColumns=22
inDegrees=yes

Units are S.I. units (second, meters, Newtons, ...)
If the header above contains a line with 'inDegrees', this indicates whether rotational values are in degrees (yes) or radians (no).

endheader
time	pelvis_tilt	pelvis_list	pelvis_rotation	pelvis_tx	pelvis_ty	pelvis_tz	hip_flexion_r	hip_adduction_r	hip_rotation_r	knee_angle_r	ankle_angle_r	subtalar_angle_r	hip_flexion_l	hip_adduction_l	hip_rotation_l	knee_angle_l	ankle_angle_l	subtalar_angle_l	lumbar_extension	lumbar_bending	lumbar_rotation
      5.50000000	      2.15435752	      0.31125054	    -29.13396871	      0.32828210	      0.88676123	      0.29597549	    -11.35697778	      0.22765072	     -3.86282133	    -16.33974319	     23.22360028	     -7.53175009	     21.49129410	     -3.92844992	     -8.71627107	    -21.80377879	      5.76637452	      0.66892434	     -6.48650432	     -4.32361909	      5.55586028
      5.51000000	      2.07389748	      0.41030955	    -29.15430932	      0.33346944	      0.88711723	      0.29609502	    -11.43551731	     -0.02673963	     -3.75909322	    -16.50397974	     22.87791481	     -7.22009519	     21.45246486	     -3.69748016	     -8.55226493	    -22.04047003	      5.51785691	      0.59313884	     -6.36038679	     -4.34677644	      5.61494035
      5.52000000	      2.00872208	      0.50656815	    -29.18177979	      0.33871530	      0.88746996	      0.29616366	    -11.49313315	     -0.30336063	     -3.66667647	    -16.73974242	     22.49785191	     -6.57750939	     21.36463046	     -3.46512506	     -8.44572097	    -22.22884987	      5.41470804	      0.48821608	     -6.25286796	     -4.36649063	      5.65580050
      5.53000000	      1.93751534	      0.59730764	    -29.22808440	      0.34398345	      0.88782665	      0.29621207	    -11.53850385	     -0.57585240	     -3.49743849	    -16.98376694	     22.11525225	     -6.13960456	     21.25574267	     -3.25447919	     -8.42634573	    -22.38494253	      5.26912807	      0.40059342	     -6.14256505	     -4.37341845	      5.71275095
      5.54000000	      1.87049972	      0.67842714	    -29.28815130	      0.34929977	      0.88818621	      0.29623740	    -11.57338228	     -0.85279961	     -3.31853987	    -17.25842637	     21.69842356	     -5.61268725	     21.11507491	     -3.05774792	     -8.46462881	    -22.51366902	      5.22941253	      0.29082615	     -6.03614684	     -4.36984905	      5.79373715
      5.55000000	      1.80845654	      0.75107423	    -29.35686826	      0.35464510	      0.88856066	      0.29624157	    -11.59432245	     -1.12928528	     -3.11559763	    -17.56875353	     21.26479072	     -5.09340332	     20.94944366	     -2.87092631	     -8.55000275	    -22.62345136	      5.25126990	      0.16213213	     -5.93550247	     -4.35739699	      5.87562777
      5.56000000	      1.75056982	      0.81679455	    -29.43404598	      0.36001378	      0.88895832	      0.29623123	    -11.59914400	     -1.40359263	     -2.87507988	    -17.91500636	     20.80714016	     -4.60611695	     20.76162718	     -2.69127360	     -8.67608519	    -22.71502362	      5.32610362	      0.01269841	     -5.83840678	     -4.33782884	      5.95717728
      5.57000000	      1.70143552	      0.87477211	    -29.51486323	      0.36539926	      0.88939244	      0.29620868	    -11.58920588	     -1.67533622	     -2.61225459	    -18.30207035	     20.32654177	     -4.12140567	     20.55055179	     -2.51111646	     -8.81504168	    -22.79243856	      5.45163705	     -0.16741970	     -5.74888827	     -4.31482097	      6.03284900
      5.58000000	      1.66627985	      0.92220563	    -29.57907103	      0.37081410	      0.88986801	      0.29615018	    -11.56871592	     -1.94377570	     -2.38019991	    -18.73795108	     19.81954045	     -3.56369862	     20.31657178	     -2.31563483	     -8.90643751	    -22.86173519	      5.61272335	     -0.40867741	     -5.67341701	     -4.28954407	      6.09770434
      5.59000000	      1.62438030	      0.96969224	    -29.68022199	      0.37620036	      0.89037322	      0.29616311	    -11.51188809	     -2.20040790	     -2.02104663	    -19.20963957	     19.29997910	     -3.18556174	     20.07245787	     -2.13876834	     -9.06872353	    -22.91400095	      5.79911911	     -0.60490583	     -5.57940991	     -4.26477774	      6.17761308
      5.60000000	      1.59573757	      1.00924459	    -29.76647726	      0.38158751	      0.89092002	      0.29615645	    -11.42741739	     -2.45240954	     -1.68828773	    -19.75431557	     18.74098887	     -2.68484325	     19.80688275	     -1.94419759	     -9.17421384	    -22.95232345	      6.00232299	     -0.89114820	     -5.49836062	     -4.24311703	      6.25339313
      5.61000000	      1.57255433	      1.03993171	    -29.81456519	      0.38698332	      0.89149945	      0.29609641	    -11.31235425	     -2.68964653	     -1.40128510	    -20.36789485	     18.14287149	     -2.09814342	     19.53156347	     -1.72775073	     -9.18745257	    -22.97794373	      6.20472218	     -1.23706415	     -5.42670016	     -4.21674703	      6.30466115
      5.62000000	      1.53830019	      1.06228828	    -29.91854299	      0.39229361	      0.89209769	      0.29614071	    -11.12920862	     -2.90462843	     -0.97321297	    -21.06588729	     17.54050010	     -1.74003706	     19.24705636	     -1.55107701	     -9.29091613	    -22.98512343	      6.38935968	     -1.47697319	     -5.33722487	     -4.18437364	      6.40415850
      5.63000000	      1.51017731	      1.07919101	    -29.97108137	      0.39761136	      0.89271277	      0.29609952	    -10.90660031	     -3.10953629	     -0.62531192	    -21.84832591	     16.87895026	     -1.12625229	     18.95906539	     -1.34391220	     -9.27655551	    -22.98158466	      6.58083574	     -1.87885820	     -5.25881835	     -4.14951167	      6.46989298
      5.64000000	      1.46952116	      1.08556790	    -30.05268247	      0.40284008	      0.89333182	      0.29610468	    -10.60747761	     -3.28857653	     -0.19967291	    -22.72988403	     16.20610447	     -0.63608868	     18.67001420	     -1.16829803	     -9.30953866	    -22.96197159	      6.74532488	     -2.20918579	     -5.16903521	     -4.10105837	      6.56046046
      5.65000000	      1.42076459	      1.07515588	    -30.16361002	      0.40796170	      0.89395604	      0.29615205	    -10.23309424	     -3.43940576	      0.28319790	    -23.71923049	     15.53416827	     -0.28482191	     18.37934094	     -1.03005784	     -9.39189967	    -22.93823381	      6.86272565	     -2.46236791	     -5.08215844	     -4.03554034	      6.69037520
      5.66000000	      1.35522012	      1.05807557	    -30.26122834	      0.41299945	      0.89454780	      0.29615861	     -9.77774178	     -3.56571294	      0.74624413	    -24.81097116	     14.82814808	      0.20307072	     18.11414560	     -0.90177169	     -9.44209317	    -22.92213447	      6.99475838	     -2.79661505	     -4.98769688	     -3.95240131	      6.79775721
      5.67000000	      1.27803927	      1.01353670	    -30.35773734	      0.41793837	      0.89513262	      0.29616218	     -9.25323487	     -3.65427851	      1.16810274	    -26.00687142	     14.11390064	      0.71430204	     17.84206225	     -0.80649724	     -9.48546208	    -22.88684003	      7.12560294	     -3.12957783	     -4.90133285	     -3.83421005	      6.90089594
